<svg xmlns="http://www.w3.org/2000/svg" width="95" height="15" fill="none" viewBox="0 0 95 15"><g opacity=".5" style="mix-blend-mode:hard-light"><mask id="path-1-outside-1_27_2032" width="96" height="15" x="-.75" y="0" fill="#000" maskUnits="userSpaceOnUse"><path fill="#fff" d="M-.75 0h96v15h-96z"/><path d="M6.25 13.25V11.5H4.5V9.75H2.75V8H1V6.25h1.75V4.5H4.5V2.75h1.75V1h3.5v1.75H8V4.5H6.25v1.75H4.5V8h1.75v1.75H8v1.75h1.75v1.75zM25.5 1v1.75h-1.75V1zM22 2.75h1.75V4.5H22zM20.25 4.5H22v1.75h-1.75zM18.5 6.25h1.75V8H18.5zM16.75 8h1.75v1.75h-1.75zM15 9.75h1.75v1.75H15zm-1.75 1.75H15v1.75h-1.75zm14 1.75V1h3.5v5.25H36V1h3.5v12.25H36V8h-5.25v5.25zm19.25 0V2.75H43V1h10.5v1.75H50v10.5zm8.75 0V1h3.5v1.75h1.75V4.5h1.75V2.75H64V1h3.5v12.25H64v-7h-1.75v3.5H60.5v-3.5h-1.75v7zm15.75 0V1h3.5v10.5h7v1.75zm14 0V11.5h1.75V9.75h1.75V8h1.75V6.25H88.5V4.5h-1.75V2.75H85V1h3.5v1.75h1.75V4.5H92v1.75h1.75V8H92v1.75h-1.75v1.75H88.5v1.75z"/></mask><path fill="#000" d="M6.25 13.25V11.5H4.5V9.75H2.75V8H1V6.25h1.75V4.5H4.5V2.75h1.75V1h3.5v1.75H8V4.5H6.25v1.75H4.5V8h1.75v1.75H8v1.75h1.75v1.75zM25.5 1v1.75h-1.75V1zM22 2.75h1.75V4.5H22zM20.25 4.5H22v1.75h-1.75zM18.5 6.25h1.75V8H18.5zM16.75 8h1.75v1.75h-1.75zM15 9.75h1.75v1.75H15zm-1.75 1.75H15v1.75h-1.75zm14 1.75V1h3.5v5.25H36V1h3.5v12.25H36V8h-5.25v5.25zm19.25 0V2.75H43V1h10.5v1.75H50v10.5zm8.75 0V1h3.5v1.75h1.75V4.5h1.75V2.75H64V1h3.5v12.25H64v-7h-1.75v3.5H60.5v-3.5h-1.75v7zm15.75 0V1h3.5v10.5h7v1.75zm14 0V11.5h1.75V9.75h1.75V8h1.75V6.25H88.5V4.5h-1.75V2.75H85V1h3.5v1.75h1.75V4.5H92v1.75h1.75V8H92v1.75h-1.75v1.75H88.5v1.75z"/><path fill="#fff" d="M6.25 13.25h-1v1h1zm0-1.75h1v-1h-1zm-1.75 0h-1v1h1zm0-1.75h1v-1h-1zm-1.75 0h-1v1h1zm0-1.75h1V7h-1zM1 8H0v1h1zm0-1.75v-1H0v1zm1.75 0v1h1v-1zm0-1.75v-1h-1v1zm1.75 0v1h1v-1zm0-1.75v-1h-1v1zm1.75 0v1h1v-1zm0-1.75V0h-1v1zm3.5 0h1V0h-1zm0 1.75v1h1v-1zM8 2.75v-1H7v1zM8 4.5v1h1v-1zm-1.75 0v-1h-1v1zm0 1.75v1h1v-1zm-1.75 0v-1h-1v1zM4.5 8h-1v1h1zm1.75 0h1V7h-1zm0 1.75h-1v1h1zm1.75 0h1v-1H8zm0 1.75H7v1h1zm1.75 0h1v-1h-1zm0 1.75v1h1v-1zm-3.5 0h1V11.5h-2v1.75zm0-1.75v-1H4.5v2h1.75zm-1.75 0h1V9.75h-2v1.75zm0-1.75v-1H2.75v2H4.5zm-1.75 0h1V8h-2v1.75zm0-1.75V7H1v2h1.75zM1 8h1V6.25H0V8zm0-1.75v1h1.75v-2H1zm1.75 0h1V4.5h-2v1.75zm0-1.75v1H4.5v-2H2.75zm1.75 0h1V2.75h-2V4.5zm0-1.75v1h1.75v-2H4.5zm1.75 0h1V1h-2v1.75zm0-1.75v1h3.5V0h-3.5zm3.5 0h-1v1.75h2V1zm0 1.75v-1H8v2h1.75zM8 2.75H7V4.5h2V2.75zM8 4.5v-1H6.25v2H8zm-1.75 0h-1v1.75h2V4.5zm0 1.75v-1H4.5v2h1.75zm-1.75 0h-1V8h2V6.25zM4.5 8v1h1.75V7H4.5zm1.75 0h-1v1.75h2V8zm0 1.75v1H8v-2H6.25zm1.75 0H7v1.75h2V9.75zm0 1.75v1h1.75v-2H8zm1.75 0h-1v1.75h2V11.5zm0 1.75v-1h-3.5v2h3.5zM25.5 1h1V0h-1zm0 1.75v1h1v-1zm-1.75 0h-1v1h1zm0-1.75V0h-1v1zM22 2.75v-1h-1v1zm1.75 0h1v-1h-1zm0 1.75v1h1v-1zM22 4.5h-1v1h1zm-1.75 0v-1h-1v1zm1.75 0h1v-1h-1zm0 1.75v1h1v-1zm-1.75 0h-1v1h1zm-1.75 0v-1h-1v1zm1.75 0h1v-1h-1zm0 1.75v1h1V8zM18.5 8h-1v1h1zm-1.75 0V7h-1v1zm1.75 0h1V7h-1zm0 1.75v1h1v-1zm-1.75 0h-1v1h1zm-1.75 0v-1h-1v1zm1.75 0h1v-1h-1zm0 1.75v1h1v-1zm-1.75 0h-1v1h1zm-1.75 0v-1h-1v1zm1.75 0h1v-1h-1zm0 1.75v1h1v-1zm-1.75 0h-1v1h1zM25.5 1h-1v1.75h2V1zm0 1.75v-1h-1.75v2h1.75zm-1.75 0h1V1h-2v1.75zm0-1.75v1h1.75V0h-1.75zM22 2.75v1h1.75v-2H22zm1.75 0h-1V4.5h2V2.75zm0 1.75v-1H22v2h1.75zM22 4.5h1V2.75h-2V4.5zm-1.75 0v1H22v-2h-1.75zm1.75 0h-1v1.75h2V4.5zm0 1.75v-1h-1.75v2H22zm-1.75 0h1V4.5h-2v1.75zm-1.75 0v1h1.75v-2H18.5zm1.75 0h-1V8h2V6.25zm0 1.75V7H18.5v2h1.75zM18.5 8h1V6.25h-2V8zm-1.75 0v1h1.75V7h-1.75zm1.75 0h-1v1.75h2V8zm0 1.75v-1h-1.75v2h1.75zm-1.75 0h1V8h-2v1.75zm-1.75 0v1h1.75v-2H15zm1.75 0h-1v1.75h2V9.75zm0 1.75v-1H15v2h1.75zm-1.75 0h1V9.75h-2v1.75zm-1.75 0v1H15v-2h-1.75zm1.75 0h-1v1.75h2V11.5zm0 1.75v-1h-1.75v2H15zm-1.75 0h1V11.5h-2v1.75zm14 0h-1v1h1zm0-12.25V0h-1v1zm3.5 0h1V0h-1zm0 5.25h-1v1h1zm5.25 0v1h1v-1zM36 1V0h-1v1zm3.5 0h1V0h-1zm0 12.25v1h1v-1zm-3.5 0h-1v1h1zM36 8h1V7h-1zm-5.25 0V7h-1v1zm0 5.25v1h1v-1zm-3.5 0h1V1h-2v12.25zm0-12.25v1h3.5V0h-3.5zm3.5 0h-1v5.25h2V1zm0 5.25v1H36v-2h-5.25zm5.25 0h1V1h-2v5.25zM36 1v1h3.5V0H36zm3.5 0h-1v12.25h2V1zm0 12.25v-1H36v2h3.5zm-3.5 0h1V8h-2v5.25zM36 8V7h-5.25v2H36zm-5.25 0h-1v5.25h2V8zm0 5.25v-1h-3.5v2h3.5zm15.75 0h-1v1h1zm0-10.5h1v-1h-1zm-3.5 0h-1v1h1zM43 1V0h-1v1zm10.5 0h1V0h-1zm0 1.75v1h1v-1zm-3.5 0v-1h-1v1zm0 10.5v1h1v-1zm-3.5 0h1V2.75h-2v10.5zm0-10.5v-1H43v2h3.5zm-3.5 0h1V1h-2v1.75zM43 1v1h10.5V0H43zm10.5 0h-1v1.75h2V1zm0 1.75v-1H50v2h3.5zm-3.5 0h-1v10.5h2V2.75zm0 10.5v-1h-3.5v2H50zm5.25 0h-1v1h1zm0-12.25V0h-1v1zm3.5 0h1V0h-1zm0 1.75h-1v1h1zm1.75 0h1v-1h-1zm0 1.75h-1v1h1zm1.75 0v1h1v-1zm0-1.75v-1h-1v1zm1.75 0v1h1v-1zM64 1V0h-1v1zm3.5 0h1V0h-1zm0 12.25v1h1v-1zm-3.5 0h-1v1h1zm0-7h1v-1h-1zm-1.75 0v-1h-1v1zm0 3.5v1h1v-1zm-1.75 0h-1v1h1zm0-3.5h1v-1h-1zm-1.75 0v-1h-1v1zm0 7v1h1v-1zm-3.5 0h1V1h-2v12.25zm0-12.25v1h3.5V0h-3.5zm3.5 0h-1v1.75h2V1zm0 1.75v1h1.75v-2h-1.75zm1.75 0h-1V4.5h2V2.75zm0 1.75v1h1.75v-2H60.5zm1.75 0h1V2.75h-2V4.5zm0-1.75v1H64v-2h-1.75zm1.75 0h1V1h-2v1.75zM64 1v1h3.5V0H64zm3.5 0h-1v12.25h2V1zm0 12.25v-1H64v2h3.5zm-3.5 0h1v-7h-2v7zm0-7v-1h-1.75v2H64zm-1.75 0h-1v3.5h2v-3.5zm0 3.5v-1H60.5v2h1.75zm-1.75 0h1v-3.5h-2v3.5zm0-3.5v-1h-1.75v2h1.75zm-1.75 0h-1v7h2v-7zm0 7v-1h-3.5v2h3.5zm12.25 0h-1v1h1zM71 1V0h-1v1zm3.5 0h1V0h-1zm0 10.5h-1v1h1zm7 0h1v-1h-1zm0 1.75v1h1v-1zm-10.5 0h1V1h-2v12.25zM71 1v1h3.5V0H71zm3.5 0h-1v10.5h2V1zm0 10.5v1h7v-2h-7zm7 0h-1v1.75h2V11.5zm0 1.75v-1H71v2h10.5zm3.5 0h-1v1h1zm0-1.75v-1h-1v1zm1.75 0v1h1v-1zm0-1.75v-1h-1v1zm1.75 0v1h1v-1zm0-1.75V7h-1v1zm1.75 0v1h1V8zm0-1.75h1v-1h-1zm-1.75 0h-1v1h1zm0-1.75h1v-1h-1zm-1.75 0h-1v1h1zm0-1.75h1v-1h-1zm-1.75 0h-1v1h1zM85 1V0h-1v1zm3.5 0h1V0h-1zm0 1.75h-1v1h1zm1.75 0h1v-1h-1zm0 1.75h-1v1h1zm1.75 0h1v-1h-1zm0 1.75h-1v1h1zm1.75 0h1v-1h-1zm0 1.75v1h1V8zM92 8V7h-1v1zm0 1.75v1h1v-1zm-1.75 0v-1h-1v1zm0 1.75v1h1v-1zm-1.75 0v-1h-1v1zm0 1.75v1h1v-1zm-3.5 0h1V11.5h-2v1.75zm0-1.75v1h1.75v-2H85zm1.75 0h1V9.75h-2v1.75zm0-1.75v1h1.75v-2h-1.75zm1.75 0h1V8h-2v1.75zm0-1.75v1h1.75V7H88.5zm1.75 0h1V6.25h-2V8zm0-1.75v-1H88.5v2h1.75zm-1.75 0h1V4.5h-2v1.75zm0-1.75v-1h-1.75v2h1.75zm-1.75 0h1V2.75h-2V4.5zm0-1.75v-1H85v2h1.75zm-1.75 0h1V1h-2v1.75zM85 1v1h3.5V0H85zm3.5 0h-1v1.75h2V1zm0 1.75v1h1.75v-2H88.5zm1.75 0h-1V4.5h2V2.75zm0 1.75v1H92v-2h-1.75zm1.75 0h-1v1.75h2V4.5zm0 1.75v1h1.75v-2H92zm1.75 0h-1V8h2V6.25zm0 1.75V7H92v2h1.75zM92 8h-1v1.75h2V8zm0 1.75v-1h-1.75v2H92zm-1.75 0h-1v1.75h2V9.75zm0 1.75v-1H88.5v2h1.75zm-1.75 0h-1v1.75h2V11.5zm0 1.75v-1H85v2h3.5z" mask="url(#path-1-outside-1_27_2032)"/></g></svg>